<svg xmlns="http://www.w3.org/2000/svg" xmlns:xlink="http://www.w3.org/1999/xlink" version="1.1" x="0px" y="0px" viewBox="0 0 98 122.5" style="enable-background:new 0 0 98 98;" xml:space="preserve"><g><path fill="white" d="M49,37.5c-6.3,0-11.5,5.2-11.5,11.5c0,6.3,5.2,11.5,11.5,11.5c6.3,0,11.5-5.2,11.5-11.5C60.5,42.7,55.3,37.5,49,37.5z"/><path fill="white" d="M20.5,18.9c-1.2-1.2-3.1-1.2-4.2,0c-16.5,16.6-16.5,43.6,0,60.2c0.6,0.6,1.4,0.9,2.1,0.9c0.8,0,1.5-0.3,2.1-0.9   c1.2-1.2,1.2-3.1,0-4.2c-14.2-14.3-14.2-37.5,0-51.8C21.7,21.9,21.7,20,20.5,18.9z"/><path fill="white" d="M81.7,18.9c-1.2-1.2-3.1-1.2-4.2,0c-1.2,1.2-1.2,3.1,0,4.2c14.2,14.3,14.2,37.5,0,51.8c-1.2,1.2-1.2,3.1,0,4.2   c0.6,0.6,1.3,0.9,2.1,0.9c0.8,0,1.5-0.3,2.1-0.9C98.2,62.5,98.2,35.5,81.7,18.9z"/><path fill="white" d="M33.2,31.5c-1.2-1.2-3.1-1.2-4.2,0c-9.7,9.7-9.7,25.4,0,35c0.6,0.6,1.4,0.9,2.1,0.9s1.5-0.3,2.1-0.9c1.2-1.2,1.2-3.1,0-4.2   c-7.3-7.3-7.3-19.2,0-26.6C34.4,34.5,34.4,32.7,33.2,31.5z"/><path fill="white" d="M64.8,31.5c-1.2,1.2-1.2,3.1,0,4.2c7.3,7.3,7.3,19.2,0,26.6c-1.2,1.2-1.2,3.1,0,4.2c0.6,0.6,1.4,0.9,2.1,0.9   s1.5-0.3,2.1-0.9c9.7-9.7,9.7-25.4,0-35C67.8,30.3,66,30.3,64.8,31.5z"/></g></svg>